<?xml version="1.0" encoding="UTF-8"?>
<svg xmlns="http://www.w3.org/2000/svg" version="1.1" xmlns:xlink="http://www.w3.org/1999/xlink" viewBox="0 0 595.28 841.89">
  <defs>
    <style>
      .cls-1 {
        stroke: #1d1d1b;
        stroke-miterlimit: 10;
        stroke-width: .25px;
      }

      .cls-1, .cls-2 {
        fill: #fff;
      }

      .cls-3 {
        fill: url(#Degradado_sin_nombre_79);
      }

      .cls-4 {
        fill: url(#Degradado_sin_nombre_9);
      }

      .cls-5 {
        fill: #1d1d1b;
      }

      .cls-6 {
        fill: url(#Degradado_sin_nombre_95);
      }
    </style>
    <linearGradient id="Degradado_sin_nombre_95" data-name="Degradado sin nombre 95" x1="127.32" y1="344.57" x2="443.76" y2="344.57" gradientUnits="userSpaceOnUse">
      <stop offset=".65" stop-color="#a40c32"/>
      <stop offset="1" stop-color="#a40c32"/>
      <stop offset="1" stop-color="#a40c32" stop-opacity="0"/>
      <stop offset="1" stop-color="#b2183e" stop-opacity="0"/>
      <stop offset="1" stop-color="#a40c32"/>
    </linearGradient>
    <radialGradient id="Degradado_sin_nombre_79" data-name="Degradado sin nombre 79" cx="184.69" cy="342.74" fx="184.69" fy="342.74" r="81.8" gradientUnits="userSpaceOnUse">
      <stop offset="0" stop-color="#a40c32" stop-opacity="0"/>
      <stop offset="0" stop-color="#b2183e" stop-opacity="0"/>
      <stop offset=".54" stop-color="#ed055e"/>
    </radialGradient>
    <linearGradient id="Degradado_sin_nombre_9" data-name="Degradado sin nombre 9" x1="161.41" y1="445.35" x2="161.41" y2="445.35" gradientUnits="userSpaceOnUse">
      <stop offset="0" stop-color="#fff"/>
      <stop offset="1" stop-color="#a40c32" stop-opacity="0"/>
    </linearGradient>
  </defs>
  <!-- Generator: Adobe Illustrator 28.7.1, SVG Export Plug-In . SVG Version: 1.2.0 Build 142)  -->
  <g>
    <g id="Capa_1">
      <g>
        <path class="cls-6" d="M162.22,445.43h14.59l-7.3-19.46c-1.28.06-3.19.12-5.51.1-4.27-.05-4.92-.35-9.08-.5-5.87-.22-11.53.12-11.53.12h0s-1.63,1.95-3.9,3.39c-.43.27-.79.52-1.27.71-.48.19-3.89,1.48-7.14-.49-2.36-1.44-4-4.22-3.73-7.14.37-4.04,4.27-7,8.11-6.97,3.79.03,6.16,2.98,6.49,3.41,11.35.05,22.7.11,34.05.16.72,3.51,1.66,7.32,2.92,11.35,1.68,5.38,3.6,10.14,5.51,14.27,1.83.25,3.84.43,6,.49,3.85.11,7.3-.2,10.22-.65-1.48-2.46-2.98-5.27-4.38-8.43-2.34-5.29-3.79-10.21-4.7-14.39-.94-.29-3.39-1.18-5.03-3.61-2.01-2.98-1.99-7.07,0-10.54.41-.34,3.22-2.64,7.11-1.99.55.09,4.46.81,6.18,4.42,1.36,2.86.82,6.39-1.38,8.96.42,2.01.95,4.11,1.61,6.28,2.45,8.06,5.95,14.66,9.34,19.79,7.84.27,15.68.54,23.51.81-3.39-4.5-7.28-10.5-10.7-18-3.49-7.66-5.48-14.68-6.65-20.27-1.22-5.96-2.37-15.37-.49-26.59,1.49-8.87,4.36-15.91,6.81-20.76,2.55-5.62,6.62-12.72,13.14-19.62,15.63-16.55,34.94-20.91,42.81-22.22,4.96-.24,9.91-.49,14.87-.73-.15-23.7-.29-47.4-.44-71.11l-22.38,1.78-4.7,31.14c-5.51.97-12.47,2.73-20.11,6-7.04,3.02-12.71,6.5-17.03,9.57-7.35-5.24-14.7-10.49-22.05-15.73-3.24,1.77-7.29,1.08-9.73-1.62-2.36-2.61-2.7-6.54-.81-9.57,2.82-2.97,7.18-3.69,10.5-1.87,2.7,1.49,4.36,4.47,4.33,7.71,5.92,4.05,11.84,8.11,17.76,12.16,3.9-2.36,8.66-4.88,14.27-7.14,5.87-2.36,11.28-3.87,15.89-4.86,1.84-10.54,3.68-21.08,5.51-31.62,7.28-1.35,16.21-2.44,26.43-2.43,10.15,0,19.03,1.08,26.27,2.43,2,10.54,4,21.08,6,31.62,4.92.82,11.25,2.39,18.16,5.51,5.12,2.31,9.33,4.92,12.65,7.3l25.46-18.81c6.28,4.34,13.63,10.16,21.08,17.84,6.91,7.12,12.21,14.08,16.22,20.11-6.05,8.27-12.11,16.54-18.16,24.81,2.86,4.2,6.24,10.12,8.76,17.68,1.85,5.56,2.78,10.61,3.24,14.76,10.81,1.68,21.62,3.35,32.43,5.03,1.01,8.64,1.63,18.44,1.46,29.19-.13,7.95-.68,15.33-1.46,22.05-10.43,2.05-20.86,4.11-31.3,6.16-2.05,3.6-4.19,8.33-5.51,14.11-.46,2-.77,3.9-.97,5.68,6,.08,12,.16,18,.24l-.16,3.32-102.49.65h-116.92c-6.79-.34-12.44-.45-16.54-.49,0,0-5.42-.04-24.32.32,0,0,.06-1.34.16-3.81Z"/>
        <path class="cls-2" d="M338.72,447.46c4.73-4.6,17.14-17.86,21.2-39.27,4.59-24.18-4.47-42.95-7.39-48.47-3.04-5.49-10.4-17-24.65-25.63-15.32-9.29-30.05-10.06-36.31-10.02-10.13.05-18.11,2.39-22.18,3.62-7.5,2.26-13.5,5.18-17.81,7.63-5.63,3.97-12.32,9.86-18.01,18.33-1.05,1.56-4.53,6.97-7.56,14.79-2.1,5.43-4.47,13.44-4.93,23.33-.62,13.39,2.54,24.04,4.93,30.23,1.32,3.6,3.52,8.43,7.23,13.47,4.05,5.52,8.42,9.28,11.67,11.67,31.27.11,62.55.22,93.82.33Z"/>
        <path class="cls-3" d="M99.95,389.73h86.92c.33-4.7,1.01-10.43,2.43-16.86.48-2.16,2.1-9.24,5.35-17.51,5.39-13.72,12.86-24.67,18.97-32.27-9.51-9.95-19.03-19.89-28.54-29.84-2.03,2.05-4.09,4.21-6.16,6.49-1.7,1.86-3.32,3.7-4.86,5.51,5.78,8.81,11.57,17.62,17.35,26.43-3.43,4.89-7.43,11.66-10.54,20.27-2.25,6.23-3.51,11.94-4.22,16.7-11.46.05-22.92.11-34.38.16-.11.2-2.39,4.23-6.81,4.38-3.72.13-7-2.55-7.95-6-1.22-4.48,2.13-7.96,2.27-8.11,2.11-1.8,4.97-2.37,7.46-1.46,2.85,1.04,4.01,3.57,4.22,4.05,9.57-.05,19.14-.11,28.7-.16.94-4.15,2.35-9.02,4.54-14.27,2.54-6.11,5.46-11.14,8.11-15.08-5.95-8.97-11.89-17.95-17.84-26.92,1.68-3.17,3.99-6.87,7.14-10.7,4.12-5.02,8.37-8.65,11.84-11.19,12.35,11.46,24.7,22.92,37.05,34.38,5.4-5.18,14-12.16,26.07-17.47,8.08-3.55,15.49-5.39,21.37-6.37.2-3.97,3.41-7.15,7.3-7.3,3.74-.15,7.11,2.56,7.78,6.32,1.32,3.56-.32,7.57-3.69,9.17-3.27,1.55-7.28.42-9.28-2.68-6.91,1.7-15.9,4.63-25.62,9.89-8.96,4.85-15.89,10.23-20.92,14.76-4.92,4.62-11.07,11.38-16.54,20.59-4.16,7-6.84,13.58-8.59,18.97-1.12,4.19-2.14,8.85-2.92,13.95-1.12,7.38-1.49,14.1-1.46,19.95h-51.57l-42.97.81c-.25.4-2.07,3.24-5.68,3.73-4.18.57-6.94-2.53-7.14-2.76-.28-.37-2.49-3.39-1.46-7.14.7-2.53,2.48-3.94,3.08-4.38.32-.27,2.77-2.26,6.16-1.62,3.25.62,4.8,3.18,5.03,3.57Z"/>
        <path class="cls-4" d="M161.41,445.35"/>
        <path class="cls-5" d="M273.91,437.08h-12.16l-.65-85.78h18.32c3.89,18.32,7.78,36.65,11.68,54.97l11.84-54.97h17.51l.65,86.59h-12.97c-.28-15.07-.29-30.48,0-46.22.08-4.52.19-9,.32-13.46-2.9,10.65-5.64,21.96-8.11,33.89-1.83,8.87-3.39,17.48-4.7,25.78h-9.08l-12.16-58.54-1.14.49.65,57.24Z"/>
        <g>
          <path class="cls-5" d="M218.66,529.49h-10.29l-.55-73.49h15.5c3.29,15.7,6.58,31.4,9.88,47.1l10.01-47.1h14.82l.55,74.19h-10.97c-.24-12.91-.25-26.12,0-39.6.07-3.87.16-7.71.27-11.53-2.45,9.12-4.77,18.81-6.86,29.04-1.55,7.6-2.87,14.97-3.98,22.09h-7.68l-10.29-50.15-.96.42.55,49.04Z"/>
          <polygon class="cls-5" points="264.58 530.18 276.58 457.05 291.5 457.05 303.18 530.18 292.47 530.18 290.36 514.45 277.39 514.13 275.61 530.18 264.58 530.18"/>
          <polyline class="cls-2" points="278.85 502.61 282.42 474.24 285.18 474.24 288.42 503.91 278.85 503.91"/>
          <path class="cls-5" d="M309.5,528.88v-72.89c7.58.03,15.16.05,22.74.08,1.94.95,5.23,2.9,8.03,6.57,1.71,2.24,2.7,4.43,3.28,6.08v47.84c-.41,1.76-1.36,4.65-3.77,7.14-2.09,2.15-4.75,3.46-9.91,4.53-4.33.9-11.32,1.81-20.38.66Z"/>
          <path class="cls-1" d="M319.55,466.29v52.42c2.33.36,4.26.34,5.64.24,2.95-.21,5.16-.37,6.58-2.01,1.03-1.2,1.22-2.69,1.24-3.62v-42.65c-.23-.9-.59-1.59-.97-2.11-2.15-2.94-7.09-3.69-12.49-2.27Z"/>
          <rect class="cls-5" x="352.19" y="455.99" width="11.07" height="73.43"/>
        </g>
      </g>
    </g>
  </g>
</svg>